<?xml version="1.0" encoding="UTF-8" standalone="no"?>
<!-- Generator: Adobe Illustrator 24.2.0, SVG Export Plug-In . SVG Version: 6.00 Build 0)  -->

<svg
   version="1.1"
   id="Layer_1"
   x="0px"
   y="0px"
   viewBox="0 0 34.200001 34.200001"
   xml:space="preserve"
   sodipodi:docname="russian-eagle.svg"
   inkscape:version="1.1.2 (0a00cf5339, 2022-02-04)"
   width="34.200001"
   height="34.200001"
   xmlns:inkscape="http://www.inkscape.org/namespaces/inkscape"
   xmlns:sodipodi="http://sodipodi.sourceforge.net/DTD/sodipodi-0.dtd"
   xmlns="http://www.w3.org/2000/svg"
   xmlns:svg="http://www.w3.org/2000/svg"><defs
   id="defs41">
	
	
</defs><sodipodi:namedview
   id="namedview39"
   pagecolor="#ffffff"
   bordercolor="#666666"
   borderopacity="1.0"
   inkscape:pageshadow="2"
   inkscape:pageopacity="0.0"
   inkscape:pagecheckerboard="0"
   showgrid="false"
   inkscape:zoom="3.9253247"
   inkscape:cx="112.72953"
   inkscape:cy="88.40033"
   inkscape:window-width="2560"
   inkscape:window-height="1367"
   inkscape:window-x="0"
   inkscape:window-y="0"
   inkscape:window-maximized="1"
   inkscape:current-layer="Layer_1"
   width="34.2px" />
<style
   type="text/css"
   id="style2">
	.st0{fill:#808285;}
	.st1{fill:#FFFFFF;}
</style>

<g
   id="g12"
   style="fill:#ffffff"
   transform="translate(-85.8,-71.4)">
		<g
   id="g8"
   style="fill:#ffffff">
			<path
   class="st1"
   d="m 102.9,71.4 c -9.4,0 -17.1,7.6 -17.1,17.1 0,9.4 7.6,17.1 17.1,17.1 9.4,0 17.1,-7.6 17.1,-17.1 0,-9.4 -7.7,-17.1 -17.1,-17.1 z m 0,32.8 c -8.7,0 -15.7,-7 -15.7,-15.7 0,-8.7 7,-15.7 15.7,-15.7 8.7,0 15.7,7 15.7,15.7 0.1,8.7 -7,15.7 -15.7,15.7 z"
   id="path6"
   style="fill:#ffffff" />
		</g>
		<path
   class="st1"
   d="m 102.9,101.3 c 0.6,0 0.9,-0.4 1,-0.9 0.1,0.2 0.3,0.4 0.5,0.5 0.2,0 0.5,0 0.7,-0.1 0.2,-0.1 0.4,-0.3 0.5,-0.5 0.1,-0.2 0.1,-0.5 0,-0.7 0.3,0.4 0.7,0.5 1.2,0.3 0.6,-0.3 0.8,-0.7 0.5,-1.3 -0.7,-1.7 -1.4,-3.3 -2.1,-5 -0.1,-0.2 -0.1,-0.3 -0.2,-0.5 -0.1,-0.1 -0.1,-0.2 -0.2,-0.3 0,-0.1 -0.1,-0.1 -0.2,-0.2 1.1,0.1 1.6,0.5 1.9,0.7 0.1,0.1 0.1,0.1 0.4,0 0.1,0 0.3,0 0.4,0 0.1,0.1 0.3,0.2 0.4,0.2 0.4,0.3 0.8,0.6 1.2,0.9 0.2,0.2 0.4,0.4 0.4,0.7 0,0.2 -0.6,0.7 -0.7,0.9 -0.4,0.4 0.2,1 1,1 -0.2,-0.2 -0.3,-0.4 -0.2,-0.6 0.1,0 0.2,0 0.4,-0.1 0.2,-0.1 0.1,-0.6 0.2,-0.7 0.3,-0.3 1.1,-0.3 1.7,-0.3 0.2,0 0.5,-0.1 0.4,-0.4 0.3,0 0.4,0.3 0.4,0.5 0.3,-0.2 0.5,-0.9 -0.5,-1.1 v 0 c 0.2,-0.2 0.5,-0.2 0.7,0 0.2,-0.3 -0.3,-0.8 -1.1,-0.5 0,0 -0.4,-0.5 -1.4,0.7 -0.1,-0.1 -0.3,-0.2 -0.4,-0.3 -0.4,-0.4 -1.4,-1.4 -1.4,-1.4 0,-0.6 -0.1,-1.7 -0.8,-2.3 -0.3,-0.3 -0.6,-0.4 -1.3,-0.6 0,0 0.3,-0.5 0.4,-0.7 0.6,0.6 1.8,0.8 1.8,-0.2 1,1 1.9,0.4 1.9,-0.2 0,0.3 0.1,0.6 0.2,0.9 0.1,0.3 0.6,1.6 1.7,1.6 0,0.4 0,1.9 1.4,2.2 0.1,0 0.1,0 0.2,0.1 0.6,0.7 2.9,1.4 3.1,1.2 -0.2,-0.1 -0.5,-0.3 -0.5,-1.1 0,-0.5 -0.1,-3.3 -0.1,-7.2 0,-1.4 -0.1,-5.9 -4.6,-6.5 -0.7,-0.1 -1.3,0 -1.9,0.4 -0.8,0.6 -1.2,1.6 -0.7,2.7 0,0 0,0.1 0,0.1 0.2,0.3 0.1,0.5 -0.1,0.7 -0.4,0.4 -0.8,0.6 -1.3,0.7 -0.3,0 -0.6,-0.1 -0.8,-0.3 -0.5,-0.5 -0.8,-1.1 -1,-1.8 -0.2,-1.3 0.1,-2 0.1,-2.1 0.4,-0.7 1.1,-1.3 2,-1.3 0.4,-0.8 1.6,-0.5 1.6,-0.5 0.3,0.1 0.4,0.1 0.5,0.3 0,0 0.5,-0.8 0,-1.1 -0.5,-0.3 -1.6,-0.4 -1.6,-0.4 0,-0.5 -0.8,-0.9 -2.4,-0.6 -1.8,0.3 -2.2,-0.4 -2.2,-0.4 -0.1,0.9 0.6,1.3 0.8,1.5 -0.7,0.8 -1.7,2.3 -1.9,4.4 -0.2,-2.1 -1.2,-3.6 -1.9,-4.4 0.2,-0.1 0.9,-0.6 0.8,-1.5 0,0 -0.4,0.7 -2.2,0.4 -1.5,-0.3 -2.4,0.1 -2.4,0.6 0,0 -1.1,0.1 -1.6,0.4 -0.5,0.3 0,1.1 0,1.1 0.1,-0.1 0.2,-0.2 0.5,-0.3 0,0 1.2,-0.3 1.6,0.5 0.9,0.1 1.6,0.6 2,1.3 0,0 0.4,0.7 0.1,2.1 -0.1,0.7 -0.5,1.3 -1,1.8 -0.2,0.2 -0.5,0.4 -0.8,0.3 -0.5,-0.1 -0.9,-0.3 -1.3,-0.7 -0.2,-0.2 -0.3,-0.4 -0.1,-0.7 0,0 0,-0.1 0,-0.1 C 97.1,82 96.7,81 95.9,80.4 95.3,80 94.7,79.9 94,80 c -4.4,0.6 -4.6,5.1 -4.6,6.5 0,3.9 -0.1,6.7 -0.1,7.2 0,0.8 -0.3,1 -0.5,1.1 0.3,0.2 2.6,-0.5 3.1,-1.2 0,0 0.1,-0.1 0.2,-0.1 1.4,-0.3 1.4,-1.8 1.4,-2.2 1.1,0 1.6,-1.3 1.7,-1.6 0.1,-0.3 0.2,-0.6 0.2,-0.9 0,0.6 0.9,1.1 1.9,0.2 0,1 1.2,0.8 1.8,0.2 0.1,0.2 0.4,0.7 0.4,0.7 -0.7,0.1 -1,0.3 -1.3,0.6 -0.8,0.7 -0.8,1.8 -0.8,2.3 0,0 -1,1 -1.4,1.4 -0.1,0.1 -0.3,0.2 -0.4,0.3 -1.1,-1.2 -1.4,-0.7 -1.4,-0.7 -0.8,-0.3 -1.2,0.2 -1.1,0.5 0.2,-0.2 0.5,-0.1 0.7,0 v 0 c -1.1,0.2 -0.8,1 -0.5,1.1 0,-0.2 0.1,-0.5 0.4,-0.5 0,0.3 0.2,0.4 0.4,0.4 0.5,0 1.4,0 1.7,0.3 0.2,0.1 0.1,0.6 0.2,0.7 0.1,0.1 0.3,0.1 0.4,0.1 0,0.2 0,0.3 -0.2,0.6 0.8,0.1 1.3,-0.6 1,-1 -0.2,-0.2 -0.7,-0.7 -0.7,-0.9 0,-0.2 0.2,-0.5 0.4,-0.7 0.4,-0.3 0.8,-0.6 1.2,-0.9 0.1,-0.1 0.2,-0.2 0.4,-0.2 0.1,-0.1 0.3,-0.1 0.4,0 0.3,0.1 0.3,0.1 0.4,0 0.3,-0.2 0.8,-0.6 1.9,-0.7 -0.1,0 -0.1,0.1 -0.2,0.2 -0.1,0.1 -0.1,0.2 -0.2,0.3 -0.1,0.1 -0.1,0.3 -0.2,0.5 -0.7,1.7 -1.4,3.3 -2.1,5 -0.2,0.6 0,1 0.5,1.3 0.4,0.2 0.9,0.1 1.2,-0.3 -0.1,0.3 -0.1,0.5 0,0.7 0.1,0.2 0.3,0.4 0.5,0.5 0.2,0.1 0.5,0.1 0.7,0.1 0.3,-0.1 0.4,-0.2 0.5,-0.5 0.1,0.5 0.4,0.9 1,0.9 z"
   id="path10"
   style="fill:#ffffff" />
	</g>
</svg>
